<svg width="1215" height="604" viewBox="0 0 1215 604" fill="none" xmlns="http://www.w3.org/2000/svg">
<g clip-path="url(#clip0_22_2879)">
<path d="M1209.99 573.149H569.641V603.136H1209.99V573.149Z" fill="#CB7E39"/>
<path d="M1209.99 572.284H569.641V574.013H1209.34V602.271H569.641V604H1209.99C1210.35 604 1210.65 603.613 1210.65 603.136V573.149C1210.65 572.672 1210.35 572.284 1209.99 572.284Z" fill="#91552C"/>
<path d="M569.641 573.149H1209.99L1196.75 563.625H569.641V573.149Z" fill="#E58F50"/>
<path d="M1210.32 572.389L1197.08 562.865C1197.08 562.865 1196.86 562.761 1196.75 562.761H569.641V564.489H1196.59L1207.45 572.284H569.668V574.013H1210.02C1210.32 574.013 1210.6 573.745 1210.68 573.357C1210.76 572.97 1210.62 572.582 1210.35 572.389H1210.32Z" fill="#91552C"/>
<path d="M569.641 573.149H5.65784V603.136H569.641V573.149Z" fill="#CB7E39"/>
<path d="M569.641 602.271H6.34321V574.013H569.641V572.284H5.6579C5.30154 572.284 5 572.672 5 573.149V603.136C5 603.612 5.30154 604 5.6579 604H569.641V602.271Z" fill="#91552C"/>
<path d="M569.641 563.625H18.9256L5.65796 573.149H569.641V563.625Z" fill="#E58F50"/>
<path d="M569.641 572.284H8.26203L19.1173 564.489H569.668V562.761H18.9255C18.9255 562.761 18.7062 562.79 18.5965 562.865L5.35631 572.389C5.08219 572.582 4.94513 572.985 5.02736 573.357C5.1096 573.745 5.38373 574.013 5.68526 574.013H569.668V572.284H569.641Z" fill="#91552C"/>
<path d="M1183.57 27.3042H1158V572.255H1183.57V27.3042Z" fill="#CB7E39"/>
<path d="M1183.57 572.895H1158C1157.69 572.895 1157.45 572.612 1157.45 572.255V27.2893C1157.45 26.9316 1157.69 26.6484 1158 26.6484H1183.57C1183.87 26.6484 1184.12 26.9316 1184.12 27.2893V572.24C1184.12 572.597 1183.87 572.881 1183.57 572.881V572.895ZM1158.54 571.599H1183.05V27.9451H1158.54V571.599Z" fill="#91552C"/>
<path d="M1183.57 27.3042L1175.46 21.596H1149.88L1158 27.3042H1183.57Z" fill="#CB7E39"/>
<path d="M1183.57 27.9451H1158C1158 27.9451 1157.8 27.9153 1157.72 27.8557L1149.61 22.1623C1149.39 22.0133 1149.31 21.7152 1149.36 21.432C1149.42 21.1488 1149.64 20.9551 1149.88 20.9551H1175.46C1175.46 20.9551 1175.65 20.9849 1175.73 21.0445L1183.85 26.7379C1184.07 26.8869 1184.15 27.185 1184.09 27.4681C1184.04 27.7513 1183.82 27.9451 1183.57 27.9451ZM1158.16 26.6484H1181.6L1175.32 22.2517H1151.88L1158.16 26.6484Z" fill="#91552C"/>
<path d="M1149.88 21.596V566.546L1158 572.254V27.3042L1149.88 21.596Z" fill="#E58F50"/>
<path d="M1158 572.895C1158 572.895 1157.8 572.866 1157.72 572.806L1149.61 567.113C1149.44 566.993 1149.33 566.785 1149.33 566.546V21.596C1149.33 21.3575 1149.44 21.1488 1149.61 21.0296C1149.77 20.9104 1149.99 20.9104 1150.16 21.0296L1158.27 26.7229C1158.44 26.8422 1158.54 27.0508 1158.54 27.2893V572.24C1158.54 572.478 1158.44 572.687 1158.27 572.806C1158.19 572.866 1158.11 572.895 1158 572.895ZM1150.43 566.174L1157.48 571.122V27.6619L1150.43 22.7138V566.174Z" fill="#91552C"/>
<path d="M63.2185 27.3042H37.6427V572.255H63.2185V27.3042Z" fill="#CB7E39"/>
<path d="M63.2185 572.895H37.6427C37.3412 572.895 37.0945 572.612 37.0945 572.255V27.2893C37.0945 26.9316 37.3412 26.6484 37.6427 26.6484H63.2185C63.52 26.6484 63.7668 26.9316 63.7668 27.2893V572.24C63.7668 572.597 63.52 572.881 63.2185 572.881V572.895ZM38.191 571.599H62.6977V27.9451H38.191V571.599Z" fill="#91552C"/>
<path d="M63.2185 27.3042L55.1045 21.596H29.5287L37.6428 27.3042H63.2185Z" fill="#CB7E39"/>
<path d="M63.2183 27.9451H37.6426C37.6426 27.9451 37.4507 27.9153 37.3684 27.8557L29.2544 22.1623C29.0351 22.0133 28.9528 21.7152 29.0077 21.432C29.0625 21.1488 29.2818 20.9551 29.5285 20.9551H55.1043C55.1043 20.9551 55.2962 20.9849 55.3784 21.0445L63.4925 26.7379C63.7118 26.8869 63.794 27.185 63.7392 27.4681C63.6843 27.7513 63.465 27.9451 63.2183 27.9451ZM37.7796 26.6484H61.2172L54.9398 22.2517H31.5022L37.7796 26.6484Z" fill="#91552C"/>
<path d="M29.5287 21.596V566.546L37.6428 572.254V27.3042L29.5287 21.596Z" fill="#E58F50"/>
<path d="M37.6428 572.895C37.6428 572.895 37.4509 572.866 37.3687 572.806L29.2546 567.113C29.0901 566.993 28.9805 566.785 28.9805 566.546V21.596C28.9805 21.3575 29.0901 21.1488 29.2546 21.0296C29.4191 20.9104 29.6384 20.9104 29.8028 21.0296L37.9169 26.7229C38.0814 26.8422 38.191 27.0508 38.191 27.2893V572.24C38.191 572.478 38.0814 572.687 37.9169 572.806C37.8347 572.866 37.7524 572.895 37.6428 572.895ZM30.0496 566.174L37.0945 571.122V27.6619L30.0496 22.7138V566.174Z" fill="#91552C"/>
<path d="M1209.99 8.07797H569.637V31.4028H1209.99V8.07797Z" fill="#CB7E39"/>
<path d="M1209.99 7.40729H569.637V8.74865H1209.33V30.7321H569.637V32.0734H1209.99C1210.35 32.0734 1210.65 31.7753 1210.65 31.4027V8.07797C1210.65 7.70537 1210.35 7.40729 1209.99 7.40729Z" fill="#91552C"/>
<path d="M569.637 8.07797H1209.99L1196.75 0.670677H569.637V8.07797Z" fill="#E58F50"/>
<path d="M1210.32 7.48181L1197.08 0.0894241C1197.08 0.0894241 1196.86 0 1196.75 0H569.637V1.34136H1196.59L1207.44 7.40729H569.664V8.74866H1210.02C1210.32 8.74866 1210.59 8.54 1210.68 8.24192C1210.76 7.94384 1210.62 7.63085 1210.35 7.48181H1210.32Z" fill="#91552C"/>
<path d="M569.664 8.07797H5.68164V31.4028H569.664V8.07797Z" fill="#CB7E39"/>
<path d="M569.637 30.7321H6.33936V8.74865H569.637V7.40729H5.68146C5.3251 7.40729 5.02356 7.70537 5.02356 8.07797V31.4027C5.02356 31.7753 5.3251 32.0734 5.68146 32.0734H569.664V30.7321H569.637Z" fill="#91552C"/>
<path d="M569.637 0.670677H18.9218L5.68164 8.07797H569.637V0.670677Z" fill="#E58F50"/>
<path d="M569.637 7.40729H8.25837L19.0863 1.34136H569.637V0H18.9218C18.9218 0 18.7025 0.029808 18.5928 0.0894241L5.35265 7.48181C5.07853 7.63085 4.94146 7.94384 5.0237 8.24192C5.10594 8.54 5.38006 8.74866 5.6816 8.74866H569.664V7.40729H569.637Z" fill="#91552C"/>
</g>
<defs>
<clipPath id="clip0_22_2879">
<rect width="1215" height="604" fill="white"/>
</clipPath>
</defs>
</svg>
