<svg width="42" height="135" viewBox="0 0 42 135" fill="none" xmlns="http://www.w3.org/2000/svg">
<g clip-path="url(#clip0_1_8043)">
<path d="M9.22839 17.9658C4.19919 25.5677 2.02122 35.334 4.66368 44.0714C5.76919 47.7234 7.7476 51.2048 10.7591 53.534C12.699 55.0344 15.102 55.9967 17.5275 56.1619C21.7889 57.1326 26.8286 54.9364 29.4181 51.1776C32.7052 46.4069 32.8181 40.0885 31.6873 34.3976C30.5565 28.7079 28.3224 23.2777 27.2877 17.5685C26.2544 11.8591 26.5949 5.51025 30.1217 0.917127C21.8835 4.77192 14.2563 10.364 9.22711 17.9659L9.22839 17.9658Z" fill="#95948B"/>
<g opacity="0.25">
<path d="M22.7175 28.7627C23.2492 32.208 24.2872 35.619 24.1316 39.1021C23.9748 42.5853 22.2496 46.3174 18.9784 47.4863C16.5911 48.3391 13.8761 47.6751 11.4704 48.4765C10.1156 48.9285 9.03946 50.336 8.76736 51.6728C9.374 52.3518 10.0366 52.9771 10.7592 53.5355C12.6991 55.0359 15.1021 55.9982 17.5276 56.1634C21.789 57.134 26.8287 54.9378 29.4182 51.179C32.7053 46.4083 32.8195 40.0898 31.6886 34.3989C30.5565 28.7081 28.3237 23.2778 27.2891 17.5698C26.3366 12.3082 26.5514 6.50419 29.3515 2.03081C23.8041 9.61638 21.2787 19.44 22.7175 28.7627Z" fill="#001568"/>
</g>
<path d="M13.1526 52.8655C6.49746 78.831 8.33085 106.96 18.3689 131.822C19.0681 133.553 21.5243 133.516 22.1695 131.764C26.5981 119.747 28.6011 106.853 28.8707 94.015C29.1621 80.2472 27.5053 66.5055 25.0107 52.9535C24.8518 52.0927 24.162 51.4348 23.3001 51.3037C20.4847 50.8714 17.5976 50.8917 14.7859 51.355C13.9921 51.4867 13.3538 52.0832 13.1527 52.8668L13.1526 52.8655Z" fill="#FF6534"/>
<path d="M13.1526 52.8654C12.5778 55.1078 12.0659 57.3656 11.6196 59.6387C16.4459 58.7266 21.4752 58.8666 26.2352 60.0825C25.8574 57.6997 25.4454 55.3237 25.0093 52.9523C24.8517 52.0914 24.1619 51.4334 23.2987 51.3025C20.4833 50.8701 17.5974 50.889 14.7845 51.3537C13.9907 51.4855 13.3525 52.0833 13.1513 52.8642L13.1526 52.8654Z" fill="white"/>
<g opacity="0.25">
<path d="M25.0093 52.9522C24.8518 52.0926 24.1608 51.4348 23.3 51.3023C20.4833 50.8701 17.5975 50.8903 14.7858 51.3536C13.9919 51.4853 13.3538 52.0831 13.1526 52.8654C13.0246 53.3666 12.899 53.8676 12.7775 54.3695C14.858 54.2045 16.9597 54.2791 19.0224 54.5958C19.8844 54.7269 20.5741 55.3848 20.733 56.2456C23.2289 69.7975 24.8844 83.5393 24.5931 97.3071C24.3431 109.236 22.5956 121.213 18.7972 132.49C19.7735 133.502 21.623 133.249 22.1695 131.764C26.5981 119.747 28.601 106.852 28.8707 94.0149C29.1607 80.2459 27.5052 66.5041 25.0093 52.9522Z" fill="#001568"/>
</g>
<g opacity="0.25">
<path d="M25.4111 5.45119C25.4214 5.46712 25.2805 5.58209 25.0028 5.78331C24.8632 5.88269 24.6909 6.00545 24.4869 6.15019C24.3849 6.22192 24.2742 6.29824 24.1563 6.38033C24.0398 6.46359 23.9193 6.56009 23.7898 6.65734C23.5309 6.85312 23.2443 7.07057 22.9299 7.30969C22.621 7.55351 22.2959 7.83355 21.9396 8.1252C21.5788 8.40949 21.2257 8.7551 20.8367 9.1024C20.4435 9.44489 20.0613 9.84327 19.6502 10.2492C19.548 10.3506 19.4436 10.4549 19.3391 10.5591C19.2347 10.6645 19.1375 10.7785 19.0335 10.8891C18.8297 11.1126 18.6198 11.3405 18.4077 11.5737C18.1889 11.8023 17.9915 12.0575 17.7796 12.3075C17.5705 12.5611 17.3524 12.8141 17.1405 13.0796C16.9355 13.3509 16.7256 13.6266 16.5136 13.9062C16.4083 14.0467 16.2977 14.1862 16.1953 14.3303C16.0943 14.4768 15.9923 14.626 15.8903 14.7752C15.6863 15.0749 15.4733 15.374 15.269 15.6853C15.0729 16.0011 14.8733 16.3223 14.6714 16.6476C14.4628 16.9683 14.2844 17.3124 14.0902 17.6525C13.9015 17.9961 13.6983 18.3357 13.5265 18.6972C13.348 19.0555 13.1672 19.4178 12.9854 19.7827C12.821 20.1565 12.6543 20.5331 12.4867 20.9137C11.8413 22.4468 11.2788 24.0788 10.8422 25.7881C10.4228 27.5025 10.1518 29.2085 10.0001 30.8658C9.9691 31.2815 9.93763 31.692 9.90723 32.0999C9.89619 32.5088 9.88472 32.9125 9.87432 33.3136C9.85487 33.7141 9.8749 34.11 9.87918 34.5021C9.88984 34.8937 9.88476 35.2814 9.91904 35.6633C9.94439 36.0459 9.9692 36.4221 9.9937 36.7944C10.0259 37.1662 10.0742 37.5314 10.1131 37.8922C10.1333 38.0725 10.1533 38.2516 10.1732 38.4294C10.1956 38.607 10.2281 38.7811 10.2542 38.9558C10.3101 39.3036 10.3641 39.6451 10.4179 39.9828C10.4791 40.3172 10.5525 40.6442 10.6179 40.9667C10.687 41.2875 10.7405 41.6071 10.8262 41.9111C10.9044 42.2183 10.9807 42.518 11.0566 42.8125C11.0957 42.959 11.1285 43.106 11.1699 43.2484C11.2139 43.3907 11.2563 43.5304 11.2987 43.6689C11.4694 44.2228 11.619 44.7551 11.8049 45.2445C11.9846 45.7356 12.1329 46.2061 12.3172 46.6297C12.494 47.0553 12.6482 47.4569 12.8056 47.8195C12.9704 48.1789 13.1211 48.5072 13.2562 48.8032C13.3251 48.9511 13.3844 49.0921 13.4479 49.2224C13.5126 49.3512 13.574 49.4714 13.6308 49.5828C13.742 49.8073 13.8362 49.997 13.912 50.1508C14.061 50.4598 14.1316 50.6283 14.1156 50.6373C14.0984 50.6465 13.9961 50.4988 13.815 50.2066C13.7256 50.0591 13.6154 49.8772 13.4857 49.662C13.4214 49.5538 13.3526 49.4368 13.2793 49.3125C13.2084 49.1867 13.139 49.0479 13.064 48.9031C12.9138 48.6122 12.748 48.2877 12.5656 47.9337C12.3919 47.575 12.2225 47.176 12.0304 46.7517C11.8309 46.3306 11.6671 45.8601 11.472 45.3689C11.2707 44.8796 11.1068 44.3458 10.9216 43.788C10.8753 43.6486 10.8289 43.5078 10.7823 43.3645C10.737 43.2211 10.7004 43.0744 10.6584 42.9256C10.5772 42.6289 10.4942 42.326 10.4082 42.0181C10.3159 41.7108 10.257 41.3891 10.1812 41.0649C10.1104 40.739 10.0303 40.4087 9.96367 40.0708C9.9046 39.7311 9.845 39.3849 9.78358 39.0324C9.75484 38.8566 9.71961 38.6801 9.69439 38.5001C9.67171 38.32 9.64893 38.1386 9.62604 37.9559C9.58282 37.5902 9.53024 37.2202 9.49383 36.8437C9.46508 36.4665 9.43579 36.083 9.40747 35.6954C9.3702 35.3087 9.37093 34.9149 9.35718 34.5171C9.34853 34.1189 9.3267 33.7166 9.34306 33.3099C9.35165 32.9025 9.35993 32.4913 9.36916 32.0762C9.39775 31.662 9.42731 31.2438 9.45654 30.8218C9.60327 29.1365 9.87555 27.3995 10.3028 25.6548C10.7471 23.9151 11.324 22.2548 11.9868 20.6996C12.1591 20.3135 12.3305 19.9313 12.4996 19.552C12.6873 19.1813 12.8729 18.8148 13.0562 18.4523C13.2327 18.0852 13.4419 17.7412 13.6356 17.3946C13.8345 17.0502 14.0191 16.7031 14.2339 16.3793C14.442 16.0522 14.6478 15.7278 14.8501 15.4089C15.0593 15.0947 15.2798 14.7936 15.4901 14.4921C15.5959 14.3426 15.7005 14.1932 15.8052 14.0451C15.9127 13.8994 16.0258 13.7596 16.1336 13.6189C16.3532 13.3373 16.5681 13.0613 16.7808 12.7893C16.999 12.522 17.2249 12.2696 17.4405 12.0167C17.6602 11.7674 17.8639 11.5117 18.0893 11.2851C18.3093 11.0538 18.5257 10.8267 18.736 10.604C18.8426 10.4944 18.9438 10.3815 19.0521 10.2769C19.1605 10.1737 19.2677 10.0706 19.3737 9.97008C19.7979 9.56693 20.1948 9.17508 20.6014 8.83922C21.0038 8.49855 21.3693 8.16224 21.7436 7.88587C22.1122 7.60352 22.4497 7.33279 22.771 7.09955C23.0981 6.87358 23.3973 6.66799 23.666 6.48301C23.8012 6.39175 23.9262 6.30261 24.0483 6.22534C24.172 6.15052 24.2883 6.08019 24.396 6.01573C24.6117 5.88808 24.7956 5.77987 24.9426 5.69278C25.2394 5.52096 25.4011 5.43911 25.4102 5.45642L25.4111 5.45119Z" fill="#001568"/>
</g>
<g opacity="0.25">
<path d="M20.7291 15.6397C20.766 15.6509 20.6633 16.1319 20.4466 16.9903C20.391 17.2041 20.3299 17.4428 20.2628 17.7027C20.201 17.9648 20.1333 18.2492 20.0622 18.5546C19.9215 19.1666 19.7398 19.8582 19.5856 20.6327C19.5033 21.019 19.4159 21.4226 19.325 21.8446C19.2353 22.2664 19.1615 22.7089 19.072 23.1643C18.8879 24.0742 18.7406 25.056 18.5729 26.0859C18.27 28.1508 18.0029 30.4309 17.836 32.8331C17.6821 35.2367 17.6452 37.5325 17.672 39.6191C17.702 40.6623 17.7176 41.6551 17.7791 42.5808C17.806 43.0446 17.8214 43.4925 17.8545 43.9223C17.8889 44.3519 17.9206 44.7649 17.952 45.1587C18.0033 45.9471 18.0906 46.6576 18.1503 47.2826C18.1813 47.595 18.2106 47.8857 18.2368 48.1546C18.2693 48.4217 18.2973 48.666 18.3245 48.8857C18.4259 49.7655 18.4627 50.2556 18.4259 50.2612C18.3879 50.2683 18.2775 49.7895 18.1099 48.9178C18.0686 48.6991 18.024 48.4563 17.9738 48.1919C17.9286 47.9259 17.8877 47.6349 17.8413 47.3238C17.7522 46.6999 17.6366 45.9891 17.5607 45.1989C17.5176 44.8036 17.4729 44.3903 17.4269 43.9591C17.382 43.5277 17.3561 43.0768 17.3188 42.6112C17.2375 41.6794 17.2035 40.6818 17.1588 39.632C17.1039 37.531 17.1252 35.2184 17.2802 32.7966C17.4482 30.3763 17.7319 28.0806 18.0648 26.0055C18.2475 24.9704 18.4139 23.9858 18.6172 23.0743C18.7156 22.6181 18.8009 22.1747 18.9021 21.7532C19.0061 21.3327 19.1049 20.9282 19.1988 20.5421C19.3802 19.7693 19.5878 19.0807 19.7586 18.474C19.8465 18.1711 19.9246 17.8883 20.0048 17.6312C20.089 17.375 20.1659 17.1401 20.2358 16.9291C20.5169 16.0873 20.6896 15.6288 20.7265 15.64L20.7291 15.6397Z" fill="#001568"/>
</g>
<g opacity="0.25">
<path d="M22.2234 19.9953C22.2614 19.9883 22.3672 20.3952 22.5278 21.1371C22.5663 21.3224 22.6105 21.5291 22.6577 21.7563C22.7021 21.9824 22.7433 22.2307 22.7911 22.4966C22.8816 23.0287 22.9935 23.6326 23.0828 24.3055C23.13 24.6424 23.1786 24.9947 23.2308 25.3609C23.2807 25.7285 23.319 26.1126 23.3648 26.509C23.4615 27.3027 23.5296 28.153 23.6053 29.0491C23.7349 30.8418 23.8193 32.8177 23.818 34.8924C23.8064 36.9667 23.7095 38.9422 23.569 40.7328C23.4877 41.6277 23.4143 42.4781 23.3117 43.2702C23.2624 43.6668 23.2222 44.0497 23.1704 44.4168C23.1173 44.7839 23.0655 45.1355 23.0163 45.4714C22.923 46.144 22.8073 46.7474 22.7138 47.278C22.6651 47.5429 22.6213 47.7905 22.5758 48.0163C22.5265 48.2425 22.4819 48.4488 22.442 48.6342C22.2773 49.376 22.1683 49.7813 22.1304 49.7742C22.0925 49.767 22.1297 49.3469 22.228 48.5964C22.2536 48.4084 22.2826 48.2007 22.3138 47.9722C22.3424 47.7439 22.3732 47.4961 22.405 47.2288C22.4687 46.6955 22.5573 46.0904 22.6248 45.4174C22.6625 45.0812 22.7014 44.7294 22.743 44.3632C22.7833 43.9971 22.8131 43.6137 22.8524 43.2193C22.9346 42.4289 22.989 41.5826 23.0564 40.6914C23.1681 38.9096 23.2494 36.9471 23.2609 34.887C23.2633 32.8264 23.1942 30.8647 23.0937 29.0812C23.0326 28.1904 22.9827 27.3424 22.9055 26.5523C22.8701 26.1564 22.8422 25.774 22.804 25.4066C22.7657 25.0393 22.7275 24.6875 22.6932 24.3521C22.6296 23.6783 22.5459 23.0733 22.4848 22.5388C22.4536 22.2716 22.424 22.0236 22.3973 21.7947C22.368 21.5661 22.3404 21.3579 22.3159 21.1702C22.2226 20.4188 22.1878 19.9996 22.2258 19.9925L22.2234 19.9953Z" fill="#001568"/>
</g>
<g opacity="0.6">
<path d="M13.5588 59.1032C13.7093 59.1346 13.6652 60.1671 13.4574 61.9995C13.4054 62.457 13.3435 62.9656 13.2713 63.5203C13.2082 64.0767 13.1558 64.684 13.085 65.3328C12.9564 66.6331 12.7559 68.1047 12.6426 69.7433C12.5716 70.5599 12.4988 71.4167 12.4211 72.3088C12.3746 72.7542 12.3611 73.211 12.3328 73.6755C12.3058 74.1399 12.2795 74.6133 12.2527 75.0945C12.2245 75.5758 12.1957 76.0649 12.1662 76.5618C12.1522 76.8108 12.1331 77.0602 12.1232 77.3128C12.1159 77.5651 12.11 77.82 12.103 78.0762C12.0738 79.1023 12.0431 80.157 12.011 81.2402C11.9579 85.5707 12.0538 90.3316 12.4276 95.3134C12.8334 100.293 13.4772 105.01 14.2033 109.28C14.4023 110.344 14.5965 111.383 14.7856 112.391C14.8323 112.642 14.8789 112.894 14.9239 113.142C14.9728 113.39 15.0303 113.634 15.0827 113.878C15.1887 114.365 15.294 114.843 15.396 115.313C15.4981 115.784 15.5984 116.248 15.6965 116.702C15.7972 117.156 15.8808 117.606 15.9964 118.038C16.2113 118.907 16.4169 119.742 16.6141 120.537C16.9798 122.139 17.4077 123.561 17.7365 124.826C17.9071 125.456 18.0527 126.048 18.2016 126.588C18.3594 127.125 18.4992 127.617 18.6223 128.062C19.1119 129.839 19.317 130.854 19.1724 130.908C19.0278 130.963 18.5485 130.052 17.8031 128.352C17.6161 127.927 17.4134 127.452 17.1939 126.931C16.9833 126.408 16.7772 125.83 16.5484 125.211C16.1034 123.97 15.565 122.565 15.0959 120.972C14.8525 120.177 14.597 119.345 14.3308 118.478C14.1921 118.045 14.0853 117.596 13.9613 117.14C13.8412 116.684 13.7203 116.219 13.5962 115.747C13.4734 115.274 13.3485 114.793 13.2205 114.304C13.159 114.058 13.0911 113.813 13.0317 113.563C12.9761 113.312 12.9205 113.059 12.8647 112.806C12.6426 111.788 12.4142 110.74 12.1809 109.665C11.3314 105.349 10.6132 100.556 10.2001 95.4893C9.82041 90.4215 9.78426 85.5743 9.95275 81.1788C10.0172 80.0813 10.0799 79.0097 10.14 77.9694C10.1558 77.7099 10.1716 77.4516 10.1875 77.1947C10.2062 76.9388 10.2353 76.686 10.258 76.4336C10.3076 75.9312 10.3564 75.4353 10.4048 74.9497C10.4544 74.4641 10.5021 73.985 10.5493 73.5164C10.6003 73.0474 10.6353 72.5862 10.7061 72.1375C10.8346 71.2399 10.9572 70.3777 11.0739 69.5547C11.2894 67.9076 11.603 66.4357 11.8503 65.141C11.9805 64.495 12.0937 63.8917 12.2202 63.3416C12.356 62.7933 12.4828 62.2922 12.6011 61.8434C13.0741 60.0471 13.4059 59.0733 13.5564 59.1047L13.5588 59.1032Z" fill="white"/>
</g>
<g opacity="0.6">
<path d="M26.3673 3.86892C26.3965 3.94138 26.2515 4.08509 25.9526 4.29324C25.8031 4.39732 25.6164 4.51739 25.3922 4.6509C25.2807 4.71696 25.1593 4.78773 25.0305 4.86297C24.9019 4.93949 24.7692 5.02925 24.6248 5.11741C24.3388 5.29608 24.0194 5.49043 23.6691 5.69897C23.3232 5.91489 22.9571 6.16605 22.5579 6.42125C22.1528 6.6679 21.7492 6.97769 21.3078 7.28286C20.862 7.58066 20.42 7.93883 19.9484 8.29815C19.8299 8.38803 19.7115 8.4792 19.5906 8.57186C19.471 8.66441 19.3562 8.76819 19.2359 8.86726C18.9979 9.06647 18.7551 9.26996 18.5063 9.4791C18.2531 9.68086 18.018 9.91469 17.7678 10.1381C17.522 10.3664 17.2644 10.5931 17.0131 10.8334C16.7674 11.0797 16.517 11.3303 16.263 11.5851C16.1373 11.713 16.005 11.8376 15.881 11.9705C15.7586 12.1059 15.6348 12.2414 15.5099 12.3783C15.2628 12.6531 15.0038 12.9251 14.7539 13.2131C14.5108 13.5057 14.2642 13.8024 14.0139 14.1021C13.7568 14.3958 13.5291 14.7194 13.2854 15.0353C13.0472 15.3558 12.7916 15.6688 12.5681 16.0114C12.3363 16.347 12.1035 16.6865 11.8672 17.0301C11.6484 17.3839 11.4274 17.7405 11.204 18.1012C10.3349 19.556 9.53533 21.1199 8.85287 22.7787C8.18775 24.4451 7.6717 26.1262 7.28163 27.7761C7.19132 28.1903 7.1008 28.6019 7.01113 29.0083C6.94114 29.4194 6.87211 29.8266 6.80394 30.2286C6.72544 30.6302 6.6895 31.0334 6.63887 31.43C6.59347 31.8276 6.53082 32.2188 6.51052 32.609C6.4799 32.9989 6.45024 33.3847 6.42132 33.7641C6.40017 34.1441 6.39679 34.5214 6.38255 34.8918C6.37607 35.0769 6.37087 35.262 6.36418 35.4445C6.36132 35.6268 6.36867 35.8082 6.36953 35.9889C6.37381 36.35 6.37883 36.7046 6.38332 37.0528C6.39558 37.4016 6.42262 37.7428 6.43903 38.0797C6.46182 38.416 6.46748 38.7473 6.50836 39.0692C6.54157 39.3918 6.57309 39.7093 6.60524 40.0191C6.62195 40.1739 6.63218 40.328 6.65368 40.4785C6.67646 40.629 6.69785 40.7782 6.71904 40.9249C6.80653 41.5141 6.87413 42.0804 6.98588 42.6056C7.09008 43.1327 7.163 43.6391 7.28092 44.0993C7.39011 44.5627 7.47771 44.9982 7.57381 45.3969C7.67991 45.7922 7.77304 46.1549 7.85307 46.4839C7.89373 46.6484 7.92736 46.8057 7.96642 46.9509C8.00547 47.0961 8.04368 47.2311 8.07731 47.3574C8.14329 47.6101 8.1948 47.8278 8.22897 48.007C8.2973 48.3654 8.30019 48.5704 8.23071 48.6007C8.16006 48.6324 8.0195 48.4879 7.8154 48.1821C7.71272 48.0293 7.59513 47.8363 7.46137 47.6035C7.39635 47.4862 7.32548 47.3604 7.25004 47.226C7.17831 47.0899 7.11191 46.9405 7.03849 46.784C6.8928 46.4694 6.73371 46.1173 6.56398 45.7299C6.40297 45.3392 6.25133 44.9064 6.08031 44.4417C5.90057 43.9802 5.7668 43.4685 5.60259 42.9309C5.4321 42.3951 5.308 41.8141 5.16497 41.2063C5.13048 41.0543 5.09451 40.8998 5.05843 40.744C5.02363 40.5881 5 40.4274 4.96998 40.2672C4.91368 39.9453 4.85673 39.6156 4.79798 39.2797C4.73284 38.9443 4.70271 38.5969 4.65672 38.2445C4.61712 37.8914 4.56805 37.5327 4.53377 37.1664C4.5097 36.7992 4.4851 36.4255 4.45996 36.0455C4.44931 35.8553 4.43217 35.6644 4.4263 35.4699C4.4231 35.2765 4.42107 35.0818 4.41765 34.8858C4.41465 34.4936 4.40207 34.0945 4.40832 33.6899C4.42362 33.2858 4.43977 32.8765 4.45666 32.4607C4.46451 32.0444 4.51598 31.627 4.55149 31.2032C4.5935 30.7801 4.62071 30.3493 4.69176 29.9199C4.75493 29.4887 4.81779 29.0536 4.8816 28.6145C4.96883 28.1786 5.05573 27.739 5.14348 27.294C5.53004 25.5243 6.06672 23.7201 6.78088 21.9322C7.51366 20.1518 8.38434 18.4838 9.33919 16.947C9.58538 16.5677 9.82795 16.1912 10.0696 15.8187C10.3289 15.4589 10.5874 15.1031 10.841 14.7516C11.089 14.394 11.3691 14.0674 11.6333 13.7343C11.903 13.406 12.1568 13.0712 12.4402 12.7688C12.7167 12.4605 12.991 12.1563 13.2605 11.8564C13.5369 11.5623 13.8237 11.2855 14.0989 11.007C14.2378 10.8689 14.3755 10.731 14.512 10.5944C14.6513 10.4602 14.7964 10.3346 14.9362 10.2068C15.2185 9.95224 15.4961 9.70327 15.7687 9.45728C16.0472 9.21856 16.3321 8.9961 16.6066 8.77191C16.8841 8.55264 17.1467 8.32427 17.4276 8.13054C17.7028 7.93082 17.9734 7.73665 18.2378 7.54557C18.3714 7.45185 18.4995 7.35343 18.6324 7.26623C18.7667 7.1802 18.8984 7.09438 19.0302 7.00985C19.5552 6.67449 20.0474 6.34702 20.5423 6.08386C21.0328 5.81334 21.4847 5.54215 21.9344 5.33827C22.3796 5.12572 22.7895 4.92256 23.1755 4.75624C23.5674 4.59847 23.9247 4.45778 24.2475 4.33543C24.4097 4.27549 24.5602 4.21523 24.7067 4.1682C24.8535 4.12502 24.9915 4.08387 25.1195 4.04613C25.3758 3.97322 25.5949 3.91887 25.7743 3.88073C26.1332 3.80574 26.3333 3.80074 26.3625 3.8732L26.3673 3.86892Z" fill="white"/>
</g>
<path d="M21.168 133.495C21.2363 133.451 21.2984 133.394 21.3731 133.365C22.0339 133.101 22.4828 132.609 22.8301 132.007C23.1088 131.524 23.3129 131.009 23.4863 130.481C25.3158 124.909 26.8498 119.262 27.8411 113.473C28.4178 110.107 28.866 106.727 29.1736 103.325C29.3897 100.928 29.5426 98.5269 29.6323 96.1235C29.7002 94.295 29.7256 92.4635 29.7278 90.6328C29.7312 87.1133 29.5898 83.5994 29.3867 80.0855C29.1725 76.4072 28.7975 72.7436 28.3639 69.0861C28.0959 66.8182 27.7845 64.5551 27.4453 62.297C27.1031 60.0185 26.7025 57.7499 26.3273 55.4767C26.3112 55.3748 26.2963 55.2727 26.2789 55.1722C26.25 55.0093 26.3058 54.8924 26.4539 54.8181C26.4897 54.7997 26.5207 54.7713 26.5562 54.7489C29.0921 53.1325 30.7686 50.827 31.8537 48.0555C32.5706 46.2235 32.9585 44.3155 33.1095 42.3562C33.2996 39.8772 33.0845 37.4267 32.6503 34.9854C32.1674 32.2667 31.4214 29.615 30.6489 26.9694C30.0491 24.9176 29.4191 22.8733 28.8946 20.7997C28.338 18.6022 27.9079 16.38 27.7153 14.1226C27.5159 11.7986 27.5649 9.47857 28.0713 7.18635C28.5384 5.07039 29.3635 3.11704 30.633 1.35917C30.7056 1.2589 30.7851 1.16322 30.8417 1.05524C30.9562 0.839186 30.9364 0.616198 30.8275 0.40448C30.7172 0.190313 30.4886 0.0853494 30.2575 0.151012C30.1407 0.183956 30.0283 0.239757 29.9183 0.292791C25.6423 2.31972 21.6085 4.73964 17.9282 7.7318C14.5802 10.4536 11.627 13.5481 9.20452 17.1342C6.33548 21.3809 4.43406 26.025 3.59667 31.097C3.31768 32.7843 3.16819 34.4827 3.20245 36.1955C3.20991 36.5486 3.16599 36.8866 3.05333 37.2175L3.25777 39.6791C3.42824 39.9206 3.5087 40.1928 3.54819 40.4825C3.68572 41.5039 3.92178 42.5042 4.19443 43.4962C4.75529 45.5281 5.54224 47.4651 6.64572 49.266C7.94245 51.3813 9.5774 53.173 11.6669 54.5241C12.3217 54.9474 12.2758 54.7821 12.0887 55.5941C9.87892 65.194 8.8487 74.9257 8.87983 84.7745C8.88732 87.1403 8.97449 89.5058 9.11275 91.8671C9.30862 95.2164 9.65111 98.551 10.1149 101.875C10.4585 104.341 10.8731 106.794 11.3525 109.238C11.8275 111.661 12.3807 114.065 12.9944 116.455C14.2181 121.221 15.7723 125.879 17.4905 130.484C17.6706 130.965 17.8781 131.436 18.0942 131.902C18.4705 132.717 19.0926 133.243 19.9711 133.449C20.0891 133.476 20.2183 133.468 20.3114 133.568L21.1694 133.496L21.168 133.495ZM27.8308 75.2367C27.8649 75.647 27.8964 76.0574 27.933 76.4675C28.255 80.0348 28.4515 83.6087 28.5277 87.1887C28.5839 89.8008 28.5746 92.4133 28.4946 95.0251C28.4253 97.2875 28.3108 99.5458 28.1316 101.801C27.808 105.86 27.2987 109.898 26.5722 113.906C25.5233 119.683 24.0524 125.346 22.0527 130.866C21.9752 131.079 21.8964 131.29 21.8015 131.494C21.3018 132.567 19.8637 132.558 19.2818 131.651C19.0914 131.354 18.9629 131.031 18.8418 130.702C18.7005 130.316 18.5666 129.927 18.4191 129.545C16.8705 125.511 15.5309 121.409 14.4105 117.236C13.4183 113.54 12.5953 109.806 11.9426 106.034C11.561 103.823 11.2303 101.606 10.9618 99.3794C10.6716 96.9687 10.4707 94.5493 10.3092 92.1254C10.1445 89.6617 10.0745 87.194 10.0572 84.7245C10.0435 82.8731 10.0736 81.0219 10.145 79.1725C10.2359 76.8296 10.3965 74.4912 10.6166 72.1569C10.9795 68.3068 11.5154 64.481 12.2321 60.6803C12.383 59.8802 12.238 59.9465 13.1497 59.8243C14.8965 59.5889 16.6511 59.4457 18.4186 59.459C20.5566 59.4751 22.6704 59.6946 24.7657 60.1093C25.1604 60.1875 25.5793 60.2005 25.9365 60.4303C26.012 60.8127 26.1052 61.1922 26.1602 61.5762C26.4141 63.3483 26.659 65.1211 26.9027 66.894C27.2846 69.6663 27.5902 72.4475 27.8307 75.2354L27.8308 75.2367ZM28.5585 2.29442C28.545 2.56535 28.4336 2.69466 28.3622 2.84002C28.0368 3.50479 27.7488 4.1858 27.5048 4.88512C26.6459 7.34475 26.3713 9.89011 26.4449 12.4789C26.5055 14.6026 26.7981 16.7007 27.2304 18.7794C27.6794 20.9355 28.2719 23.0538 28.8957 25.1631C29.6304 27.6466 30.3864 30.1244 30.9791 32.6481C31.4827 34.7958 31.8528 36.961 31.9717 39.1664C32.0675 40.94 31.9722 42.7024 31.6532 44.4497C31.3021 46.3676 30.6871 48.1886 29.6688 49.8597C28.8147 51.2629 27.7421 52.4648 26.4063 53.4239C26.2983 53.5013 26.2026 53.6345 26.0142 53.5637C25.9418 53.234 25.876 52.8909 25.7889 52.5535C25.5193 51.5056 24.8717 50.8287 23.8176 50.5664C23.58 50.5074 23.3359 50.4631 23.0931 50.4342C20.6404 50.1435 18.1866 50.1485 15.7352 50.4295C15.39 50.4685 15.0462 50.5396 14.712 50.6332C13.8915 50.8615 13.307 51.3773 12.975 52.164C12.8645 52.4275 12.8085 52.7136 12.718 52.9857C12.6479 53.1942 12.656 53.4311 12.4923 53.6113C12.2603 53.5582 12.0881 53.4047 11.9053 53.2779C10.174 52.0752 8.81499 50.5253 7.71757 48.7354C6.11459 46.1214 5.16022 43.2676 4.68868 40.2523C4.25334 37.4715 4.25934 34.6799 4.66285 31.8915C5.33822 27.2215 6.9661 22.9061 9.44733 18.9124C11.4556 15.6782 13.9281 12.8341 16.7443 10.2881C20.2204 7.14381 24.0952 4.58863 28.2407 2.43055C28.327 2.38594 28.4195 2.35374 28.5611 2.2942L28.5585 2.29442ZM12.6553 58.6699C12.6727 58.5239 12.6766 58.4009 12.7016 58.284C12.8467 57.6006 12.988 56.9176 13.1474 56.2369C13.4045 55.1376 13.6773 54.0408 13.9357 52.9414C14.0763 52.3436 14.4379 51.9767 15.0184 51.7994C15.2755 51.7212 15.5353 51.6764 15.7999 51.6428C17.6319 51.4106 19.4707 51.307 21.3149 51.4533C21.9879 51.5072 22.6601 51.583 23.3267 51.6839C24.0949 51.8008 24.5831 52.2457 24.7343 53.0283C24.8086 53.412 24.8802 53.7947 24.9468 54.179C25.0105 54.543 25.0627 54.9091 25.1239 55.2745C25.3015 56.3287 25.4841 57.3825 25.6566 58.4371C25.6883 58.6333 25.7655 58.836 25.6619 59.0744C25.1253 58.9756 24.5854 58.8681 24.0431 58.7776C23.519 58.6895 22.9928 58.608 22.4642 58.5434C21.9162 58.4766 21.3656 58.4268 20.8146 58.3861C20.2842 58.3462 19.7532 58.3154 19.221 58.3002C18.6683 58.2855 18.1156 58.2875 17.5634 58.2946C17.0112 58.3017 16.4581 58.3141 15.9067 58.347C15.3758 58.3782 14.847 58.4505 14.3162 58.4829C13.7699 58.5154 13.2404 58.7027 12.6565 58.6698L12.6553 58.6699Z" fill="#001568"/>
</g>
<defs>
<clipPath id="clip0_1_8043">
<rect width="30.791" height="132.145" fill="white" transform="matrix(0.996569 -0.0827629 -0.0827629 -0.996569 11.1168 134.33)"/>
</clipPath>
</defs>
</svg>
