<svg width="715" height="559" viewBox="0 0 715 559" fill="none" xmlns="http://www.w3.org/2000/svg">
<g clip-path="url(#clip0_1_4554)">
<path d="M200.222 202.698C219.35 199.103 238.906 197.69 258.319 198.36C253.182 226.669 208.543 230.897 200.222 202.698Z" fill="white"/>
<path d="M130.241 269.331C112.968 272.706 96.6668 280.374 83.4006 291.818C85.7992 278.065 92.1989 264.807 100.992 254.033C104.867 249.278 109.154 244.919 113.737 240.906C112.771 252.51 119.423 264.889 130.241 269.331Z" fill="white"/>
<path d="M170.506 210.267C178.942 207.518 187.543 205.27 196.237 203.484C205.14 236.619 257.244 231.512 262.463 198.52C270.301 198.894 278.172 199.608 285.993 200.708C283.683 263.279 181.225 273.382 170.506 210.272V210.267Z" fill="white"/>
<path d="M423.941 289.191C404.609 277.367 387.666 315.07 380.015 328.329C341.731 401.883 302.975 427.668 219.092 425.459C200.244 424.87 181.445 422.265 163.305 417.048C129.165 406.566 60.9025 374.448 76.386 329.791C106.085 414.58 261.426 432.638 323.591 376.185C342.406 360.705 349.618 337.344 360.08 316.313C371.271 297.051 393.067 270.546 417.689 274.113C422.557 275.273 426.828 278.192 430.253 282.034C428.463 284.535 426.361 287.13 423.946 289.191H423.941Z" fill="white"/>
<path d="M357.116 225.515C362.511 229.044 367.616 232.985 372.281 237.35C364.822 237.229 357.423 238.367 350.37 240.846C353.949 236.443 356.369 231.155 357.116 225.515Z" fill="white"/>
<path d="M340.046 340.18C315.517 304.461 344.475 251.559 388.571 257.661C390.822 261.58 392.748 265.719 394.307 270.084C365.777 284.898 351.523 312.124 340.046 340.18Z" fill="white"/>
<path d="M321.11 249.811C305.303 250.103 290.236 242.929 277.338 234.255C285.104 225.048 289.193 213.235 290.093 201.318C312.224 204.863 333.921 211.515 353.175 223.047C352.571 239.34 336.396 250.037 321.11 249.811Z" fill="white"/>
<path d="M329.145 294.699C324.315 311.915 327.905 329.923 337.955 344.391C336.204 347.755 334.294 351.031 332.148 354.164C288.118 314.675 315.764 237.114 376.612 241.665C380.009 245.265 383.11 249.13 385.844 253.258C359.904 250.702 335.71 269.985 329.14 294.699H329.145Z" fill="white"/>
<path d="M141.981 383.43C158.272 359.87 173.448 332.396 176.648 303.56C182.147 311.393 191.495 316.906 201.182 316.499C175.627 331.803 157.377 358.226 150.077 386.959C147.36 385.848 144.665 384.661 141.981 383.43Z" fill="white"/>
<path d="M185.364 243.957C174.107 259.206 154.721 272.612 135.109 266.863C122.486 263.394 115.509 249.416 118.391 237.02C132.678 225.73 149.451 217.49 166.593 211.597C168.898 224.146 175.215 235.937 185.364 243.963V243.957Z" fill="white"/>
<path d="M329.705 357.539C327.016 361.052 324.046 364.344 320.874 367.428C313.08 345.276 298.546 324.497 277.305 313.619C290 314.675 302.871 307.083 307.032 294.836C305.33 306.11 306.345 317.714 310.248 328.45C314.299 339.597 321.159 349.415 329.705 357.539Z" fill="white"/>
<path d="M291.06 387.459C256.393 402.35 216.633 403.07 179.985 396.21C199.997 317.319 267.595 298.294 291.06 387.459Z" fill="white"/>
<path d="M150.818 302.043C155.983 322.145 131.657 355.406 120.466 371.804C101.925 359.798 84.9704 341.235 82.7639 318.396C95.3055 305.671 138.491 279.412 150.818 302.043Z" fill="white"/>
<path d="M168.7 285.948C182.927 310.64 152.706 360.617 138.227 381.671C133.359 379.323 128.567 376.778 123.935 373.969C137.42 354.631 151.965 333.98 155.752 310.244C157.416 299.553 149.001 290.054 138.452 289.317C117.584 288.262 97.973 300.339 82.2864 313.058C81.9735 308.238 82.0339 303.455 82.4785 298.723C100.399 279.225 150.291 257.644 168.695 285.953L168.7 285.948Z" fill="white"/>
<path d="M233.577 256.715C235.717 276.664 230.289 301.334 210.403 310.343C191.308 318.891 172.91 300.24 174.425 281.166C174.831 268.391 181.127 256.463 188.827 246.53C201.687 255.308 217.994 258.458 233.577 256.715Z" fill="white"/>
<path d="M153.947 388.47C176.275 299.591 284.023 274.553 317.581 370.479C310.731 376.635 302.997 381.632 294.863 385.65C269.945 293.039 196.775 312.41 175.951 395.292C168.453 393.511 161.126 391.213 153.947 388.465V388.47Z" fill="white"/>
<path d="M155.972 270.672C163.266 268.589 169.825 264.834 175.632 260.079C172.537 266.698 170.522 273.756 170.314 281.034C166.746 276.18 161.598 272.656 155.972 270.672Z" fill="white"/>
<path d="M329.826 252.972C319.853 261.745 312.515 273.514 308.87 286.322C309.403 280.237 308.426 273.965 306.334 268.286C303.475 260.497 298.831 253.676 293.162 247.755C304.534 252.747 317.504 255.517 329.821 252.972H329.826Z" fill="white"/>
<path d="M298.799 301.031C286.218 315.67 263.139 309.733 252.963 295.287C244.236 284.189 240.465 269.765 238.95 255.907C252.145 253.461 264.741 247.343 274.171 237.773C294.72 249.602 315.819 278.39 298.799 301.031Z" fill="white"/>
<path d="M252.913 301.515C254.818 303.51 256.92 305.324 259.176 306.918C246.93 304.088 234.092 304.461 222.116 307.661C231.859 298.921 236.464 285.585 237.693 272.2C240.481 283.013 245.207 293.429 252.913 301.515Z" fill="white"/>
<path d="M374.389 520.962C379.811 523.814 382.781 529.982 385.168 535.319C381.842 540.096 375.009 544.961 367.961 547.402C360.727 549.908 353.318 549.93 352.994 549.952C355.837 541.146 360.645 514.986 374.389 520.962Z" fill="white"/>
<path d="M415.137 498.82C426.202 495.945 432.871 515.107 432.404 516.284C431.208 519.301 425.472 520.219 416.328 521.132C411.695 521.594 406.926 521.379 402.271 521.363C405.142 513.783 406.662 501.019 415.137 498.815V498.82Z" fill="white"/>
<path d="M113.056 519.967C119.346 525.738 120.586 535.49 121.481 543.499C121.531 544.268 121.97 544.835 122.529 545.175C119.549 545.054 116.602 544.631 113.671 544.12C104.779 542.641 95.7502 541.086 86.8914 538.969C90.6292 529.048 100.674 512.32 113.056 519.967Z" fill="white"/>
<path d="M172.581 475.937C180.825 478.262 189.261 480.054 197.774 481.45C199.097 491.119 201.073 500.838 202.291 510.292C198.872 505.785 194.003 502.272 188.086 503.262C178.613 505.076 176.549 515.937 174.441 523.935C172.476 517.207 168.799 511.095 162.333 508.704C161.373 496.66 162.569 484.578 162.553 472.518C165.813 473.886 169.178 474.975 172.581 475.937Z" fill="white"/>
<path d="M73.8118 368.819C124.198 439.575 267.381 456.038 334.909 402.938C358.17 383.704 373.472 356.808 388.034 330.802C394.477 319.149 400.531 306.6 410.773 297.772C410.932 299.696 412.239 301.477 414.725 301.427C440.67 299.157 452.652 256.061 460.21 235.025C460.951 232.738 459.233 230.374 457.032 229.825C454.738 228.769 452.613 227.395 450.599 225.872C431.597 210.19 418.803 187.653 414.478 163.483C409.154 138.494 407.156 112.609 412.261 87.5818C415.444 72.7512 421.311 58.8551 432.278 48.4879C454.134 28.8256 483.471 19.9097 511.672 13.6817C591.889 -1.33031 649.059 10.0043 653.461 103.446C648.532 102.363 646.523 110.059 651.534 111.46C668.505 117.144 688.83 117.952 702.299 130.842C709.286 142.391 706.35 159.415 704.703 172.289C702.305 189.181 696.832 205.776 682.661 216.385C647.275 243.023 571.63 263.768 527.556 260.981C523.538 260.69 519.559 260.085 515.678 259.035C510.536 257.65 508.362 265.62 513.488 267C526.156 270.216 539.439 269.946 552.37 268.831C533.089 336.596 439.984 411.694 371.216 422.831C365.162 423.496 369.207 435.441 368.763 439.855C369.306 447.87 369.789 455.884 370.168 463.904C370.881 486.985 369.679 498.859 380.646 520.5C365.492 506.582 355.206 526.59 351.616 539.75C348.806 523.611 336.594 512.348 322.301 525.694C316.357 531.642 312.872 539.591 310.072 547.396C298.65 544.851 278.534 538.997 275.186 532.186C269.698 521.016 272.634 507.522 273.227 495.39C273.847 482.868 276.959 470.302 275.894 457.764C274.676 452.927 267.277 454.4 267.881 459.298C268.133 464.074 267.65 469.049 267.228 473.875C244.68 482.011 184.458 473.655 162.679 463.437C162.235 459.127 164.364 450.937 158.239 450.327C156.197 450.327 153.853 452.24 154.111 454.46C155.626 474.969 151.735 495.742 155.105 516.108C139.352 499.727 128.281 518.697 124.181 533.747C117.644 501.101 90.662 513.178 82.8132 537.947C73.6362 535.143 63.2735 533.154 56.259 526.195C56.1273 525.975 56.001 525.711 55.8583 525.496C55.7266 525.018 55.562 524.551 55.4576 524.062C55.4357 523.957 55.3314 523.666 55.3094 523.463C55.0076 507.379 62.3734 492.262 68.7842 477.839C75.7493 460.743 80.1183 442.653 84.9539 424.871C85.2667 423.425 84.9429 422.402 84.5587 421.083C82.215 413.019 79.8713 404.95 77.5276 396.886C76.869 394.616 74.6625 393.56 72.4561 394C56.742 397.232 39.6558 393.516 26.6146 383.501C22.1414 380.12 18.1017 375.849 14.7206 371.1C33.3273 379.032 55.6663 377.46 73.8063 368.808L73.8118 368.819ZM682.452 158.063C688.643 158.574 690.537 132.046 684.34 131.667C678.149 131.15 676.255 157.684 682.452 158.063ZM665.311 163.307C668.456 157.947 645.409 144.727 642.379 150.158C639.234 155.518 662.281 168.738 665.311 163.307ZM580.571 220.881C580.846 221.97 582.048 222.613 583.107 222.321C586.01 221.239 583.551 217.517 584.545 215.252C601.818 230.951 628.806 230.072 648.933 220.579C652.5 218.397 649.24 213.235 645.645 215.302C627.412 223.223 602.52 224.8 587.695 209.464C588.705 208.392 589.836 207.364 591.087 206.556C593.393 205.21 591.296 201.626 589.007 202.989C583.063 206.639 578.694 213.785 580.566 220.881H580.571ZM579.051 156.254C586.367 153.484 593.678 150.329 600.083 145.75C602.246 144.238 600.182 140.654 598.003 142.182C594.908 144.348 591.592 146.25 588.178 147.932C600.089 128.451 583.354 88.6317 560.911 84.9213C564.627 81.9915 570.549 79.5398 574.446 79.0286C579.912 78.7043 579.825 70.8383 574.446 70.7668C562.755 72.1355 552.464 79.3859 545.718 88.8406C524.098 108.3 550.202 166.523 579.056 156.254H579.051ZM522.424 68.9089C524.938 70.1072 530.997 65.0556 540.52 57.8876C550.021 50.7362 562.524 43.931 551.437 38.698C534.296 29.5787 512.857 65.1325 522.429 68.9144L522.424 68.9089Z" fill="white"/>
<path d="M144.396 514.096C150.653 515.349 155.269 521.209 157.377 526.783C158.036 528.531 160.33 537.254 156.054 540.756C150.313 545.461 136.778 544.988 132.074 545.318C129.621 545.379 127.167 545.346 124.714 545.252C128.863 536.99 131.481 512.914 144.402 514.096H144.396Z" fill="white"/>
<path d="M395.438 521.138C394.225 521.055 390.432 520.56 389.664 520.351C388.303 517.323 386.832 514.332 385.52 511.32C384.268 508.456 383.05 505.4 382.001 502.261C391.343 502.278 393.863 513.766 395.432 521.138H395.438Z" fill="white"/>
<path d="M380.772 498.155C379.065 492.389 378.977 486.524 379.005 480.592C378.807 470.594 378.297 460.606 377.704 450.629C377.298 443.835 376.842 437.046 376.326 430.257C391.964 427.416 407.046 421.886 421.416 415.114C420.598 435.76 420.214 456.456 421.344 477.096C421.707 483.473 421.998 489.816 423.957 495.852C409.697 488.233 402.321 507.236 399.011 518.021C397.233 508.857 391.876 496.94 380.767 498.149L380.772 498.155Z" fill="white"/>
<path d="M171.73 530.625C172.087 532.901 172.301 535.286 172.312 537.639C170.138 537.513 167.97 537.326 165.808 537.106C167.141 529.086 164.425 521.368 162.948 513.585C168.684 517.081 170.748 524.364 171.73 530.625Z" fill="white"/>
<path d="M349.152 550.304C343.959 550.694 334.47 551.073 326.615 550.43C320.391 549.919 315.171 548.419 314.134 548.226C324.65 517.383 346.16 513.805 349.152 550.304Z" fill="white"/>
<path d="M189.497 507.225C196.451 506.917 200.381 514.239 202.988 519.675C203.12 522.66 202.395 526.618 201.517 529.025C198.844 536.347 189.799 537.095 185.221 537.54C182.345 537.793 179.458 537.864 176.566 537.804C177.954 529.377 178.997 508.517 189.497 507.219V507.225Z" fill="white"/>
<path d="M2.09631 356.775C3.80884 355.775 5.63104 356.275 7.0965 357.419C24.4133 370.759 50.5504 370.716 70.0023 361.492C63.2348 347.024 64.4698 329.307 74.3494 316.549C61.8462 170.618 356.49 145.629 401.953 266.995C412.897 263.273 425.933 265.478 434.786 274.921C441.817 262.691 446.729 249.388 451.186 236.042C431.086 223.267 416.574 200.834 409.686 178.275C399.17 137.191 393.763 87.9339 418.984 51.1212C447.596 15.9357 504.937 3.98548 548.209 0.516943C582.651 -2.00063 623.426 3.86455 643.175 35.664C646.583 34.3832 649.761 34.5426 653.109 37.4945C660.113 43.6675 658.285 47.3009 651.666 52.3306C653.389 56.761 654.822 61.285 656.035 65.8694C655.14 65.5945 654.262 65.5176 653.422 65.721C647.994 67.0457 650.749 76.5498 653.845 89.2861C656.946 102.022 658.79 108.613 664.224 107.288C664.745 107.162 665.228 106.964 665.689 106.739C681.672 111.048 702.595 114.456 711.031 129.325C719.242 148.251 713.15 178.347 706.893 197.492C694.313 227.659 661.101 239.73 632.664 250.328C609.469 258.612 585.478 264.829 561.02 267.907C546.673 326.9 481.835 383.254 429.873 410.92C428.732 432.083 428.413 453.411 429.462 474.568C429.989 481.076 429.659 487.838 431.959 494.033C434.105 499.705 438.551 504.207 440.626 509.891C446.405 530.521 405.663 530.169 393.055 529.29C396.963 539.305 386.491 547.072 378.746 551.261C349.404 565.382 296.438 559.407 270.8 539.349C259.527 527.954 265.207 498.062 266.25 482.989C246.496 487.502 226.122 484.946 206.215 482.709C214.19 526.778 219.135 551.299 163.414 545.093C145.34 562.903 83.4057 548.699 61.6979 539.53C53.7558 536.408 46.154 530.164 47.0157 520.791C47.8061 504.751 54.3431 489.536 61.0283 475.156C67.5818 458.446 72.0771 441.021 76.7369 423.705C74.6952 416.68 72.6534 409.655 70.6171 402.63C41.0934 407.143 10.7191 389.641 0.208191 361.42C-0.461426 359.755 0.658325 357.605 2.10181 356.753L2.09631 356.775ZM82.286 313.053C97.9727 300.333 117.584 288.257 138.452 289.312C149.001 290.054 157.421 299.553 155.752 310.239C151.965 333.974 137.414 354.626 123.934 373.964C128.567 376.773 133.358 379.318 138.227 381.665C152.706 360.612 182.927 310.635 168.7 285.943C150.296 257.639 100.404 279.214 82.4836 298.712C82.039 303.445 81.9786 308.221 82.2915 313.048L82.286 313.053ZM82.7635 318.396C84.9755 341.23 101.925 359.799 120.465 371.804C131.651 355.407 155.983 322.145 150.818 302.043C138.49 279.418 95.3107 305.671 82.7635 318.396ZM294.863 385.656C302.997 381.638 310.731 376.641 317.58 370.485C284.017 274.559 176.269 299.597 153.946 388.476C161.125 391.224 168.453 393.522 175.95 395.303C196.774 312.421 269.944 293.05 294.863 385.662V385.656ZM179.979 396.21C216.633 403.07 256.387 402.35 291.054 387.459C267.589 298.294 199.991 317.319 179.979 396.21ZM174.43 281.166C172.915 300.245 191.308 318.891 210.408 310.343C230.294 301.334 235.722 276.658 233.582 256.716C217.999 258.458 201.692 255.314 188.832 246.53C181.132 256.463 174.842 268.391 174.43 281.166ZM175.638 260.08C169.831 264.835 163.272 268.589 155.977 270.672C161.603 272.662 166.751 276.18 170.319 281.034C170.528 273.75 172.542 266.698 175.638 260.08ZM222.116 307.661C234.098 304.462 246.93 304.088 259.175 306.919C256.919 305.325 254.817 303.511 252.913 301.515C245.207 293.429 240.481 283.013 237.693 272.2C236.463 285.585 231.858 298.926 222.116 307.661ZM252.962 295.287C263.138 309.733 286.218 315.67 298.798 301.032C315.819 278.39 294.72 249.603 274.17 237.773C264.741 247.349 252.144 253.467 238.95 255.908C240.459 269.765 244.23 284.189 252.962 295.287ZM306.34 268.281C308.425 273.965 309.402 280.237 308.875 286.316C312.52 273.514 319.858 261.74 329.831 252.967C317.515 255.506 304.545 252.736 293.172 247.75C298.842 253.665 303.486 260.492 306.345 268.281H306.34ZM307.031 294.837C302.871 307.084 290 314.669 277.304 313.619C298.551 324.498 313.08 345.276 320.874 367.428C324.046 364.345 327.016 361.052 329.705 357.539C321.154 349.415 314.298 339.592 310.248 328.45C306.345 317.72 305.33 306.111 307.031 294.837ZM201.182 316.5C191.494 316.912 182.147 311.393 176.647 303.56C173.448 332.397 158.271 359.87 141.981 383.43C144.659 384.661 147.354 385.848 150.077 386.959C157.371 358.221 175.627 331.798 201.182 316.5ZM100.991 254.039C92.1985 264.813 85.7988 278.071 83.4002 291.824C96.6664 280.38 112.968 272.712 130.241 269.336C119.422 264.895 112.77 252.522 113.736 240.912C109.153 244.925 104.866 249.284 100.991 254.039ZM118.391 237.015C115.509 249.41 122.485 263.389 135.109 266.857C154.72 272.613 174.112 259.2 185.364 243.952C175.215 235.932 168.897 224.136 166.592 211.586C149.446 217.479 132.672 225.724 118.391 237.009V237.015ZM200.221 202.698C208.542 230.897 253.182 226.67 258.319 198.361C238.906 197.69 219.349 199.103 200.221 202.698ZM262.463 198.52C257.243 231.518 205.139 236.619 196.237 203.484C187.542 205.27 178.942 207.519 170.506 210.267C181.22 273.377 283.682 263.273 285.993 200.702C278.172 199.603 270.306 198.888 262.463 198.515V198.52ZM290.088 201.318C289.188 213.235 285.098 225.054 277.332 234.255C290.23 242.929 305.297 250.103 321.104 249.812C336.385 250.031 352.56 239.335 353.169 223.047C333.915 211.515 312.218 204.864 290.088 201.318ZM357.115 225.515C356.374 231.155 353.954 236.443 350.37 240.846C357.423 238.367 364.822 237.229 372.281 237.35C367.615 232.986 362.511 229.044 357.115 225.515ZM376.611 241.66C315.758 237.108 288.112 314.675 332.147 354.159C334.293 351.026 336.204 347.75 337.954 344.385C327.905 329.918 324.315 311.91 329.145 294.694C335.715 269.98 359.909 250.697 385.849 253.253C383.11 249.124 380.009 245.26 376.617 241.66H376.611ZM388.571 257.661C344.475 251.565 315.517 304.467 340.046 340.18C351.517 312.119 365.771 284.898 394.307 270.084C392.753 265.72 390.821 261.58 388.571 257.661ZM417.689 274.113C393.066 270.551 371.271 297.052 360.079 316.313C349.618 337.344 342.406 360.706 323.591 376.185C261.426 432.638 106.085 414.581 76.3857 329.791C60.9021 374.448 129.165 406.561 163.305 417.049C181.445 422.265 200.243 424.871 219.091 425.459C302.975 427.669 341.731 401.883 380.014 328.329C387.665 315.065 404.615 277.367 423.94 289.191C426.361 287.13 428.457 284.535 430.247 282.034C426.827 278.192 422.552 275.273 417.683 274.113H417.689ZM416.322 521.138C425.472 520.22 431.207 519.307 432.398 516.289C432.865 515.113 426.191 495.951 415.131 498.826C406.656 501.025 405.136 513.794 402.265 521.374C406.92 521.391 411.689 521.605 416.322 521.143V521.138ZM423.962 495.858C422.003 489.822 421.712 483.473 421.35 477.102C420.213 456.461 420.603 435.766 421.421 415.119C407.046 421.892 391.969 427.421 376.331 430.263C376.842 437.046 377.303 443.841 377.709 450.635C378.302 460.617 378.818 470.605 379.01 480.598C378.982 486.529 379.07 492.395 380.777 498.161C391.881 496.946 397.243 508.863 399.022 518.032C402.331 507.247 409.708 488.244 423.968 495.863L423.962 495.858ZM389.669 520.346C390.437 520.555 394.224 521.05 395.443 521.132C393.873 513.761 391.354 502.267 382.012 502.256C383.055 505.395 384.279 508.451 385.53 511.315C386.842 514.327 388.313 517.312 389.674 520.346H389.669ZM367.961 547.402C375.009 544.961 381.842 540.102 385.168 535.32C382.781 529.982 379.811 523.82 374.388 520.962C360.645 514.987 355.837 541.146 352.993 549.952C353.317 549.925 360.727 549.903 367.961 547.402ZM326.615 550.431C334.464 551.074 343.954 550.689 349.151 550.304C346.16 513.81 324.655 517.383 314.134 548.226C315.171 548.424 320.391 549.925 326.615 550.431ZM185.215 537.54C189.798 537.095 198.844 536.348 201.511 529.026C202.389 526.618 203.114 522.66 202.982 519.676C200.37 514.239 196.44 506.917 189.491 507.225C178.986 508.522 177.948 529.383 176.56 537.81C179.452 537.865 182.339 537.799 185.215 537.546V537.54ZM165.807 537.106C167.97 537.326 170.143 537.513 172.311 537.639C172.3 535.287 172.086 532.907 171.73 530.625C170.747 524.364 168.678 517.076 162.948 513.585C164.419 521.369 167.141 529.086 165.807 537.106ZM162.339 508.709C168.799 511.1 172.482 517.213 174.447 523.941C176.554 515.943 178.623 505.081 188.091 503.267C194.008 502.278 198.871 505.79 202.296 510.298C201.078 500.843 199.107 491.125 197.779 481.456C189.266 480.06 180.824 478.268 172.586 475.942C169.183 474.98 165.824 473.892 162.558 472.523C162.574 484.583 161.378 496.666 162.339 508.709ZM132.068 545.318C136.778 544.989 150.307 545.461 156.048 540.756C160.324 537.255 158.035 528.531 157.371 526.783C155.264 521.215 150.648 515.349 144.391 514.096C131.47 512.914 128.852 536.991 124.703 545.253C127.156 545.341 129.609 545.373 132.063 545.318H132.068ZM113.67 544.115C116.601 544.631 119.554 545.055 122.529 545.17C121.964 544.829 121.525 544.263 121.481 543.494C120.581 535.485 119.34 525.733 113.056 519.961C100.673 512.315 90.6234 529.042 86.8911 538.964C95.7552 541.08 104.779 542.636 113.67 544.115ZM55.3805 523.501C55.4024 523.705 55.4354 523.969 55.4573 524.073C55.5616 524.562 55.7263 525.03 55.858 525.508C56.0062 525.717 56.1324 525.98 56.2587 526.206C63.2732 533.165 73.6358 535.155 82.8129 537.958C90.6672 513.189 117.644 501.113 124.181 533.759C128.281 518.708 139.352 499.738 155.104 516.119C151.734 495.753 155.626 474.986 154.111 454.472C153.853 452.251 156.191 450.338 158.238 450.338C164.358 450.948 162.234 459.144 162.679 463.448C184.458 473.667 244.68 482.022 267.227 473.887C267.655 469.055 268.138 464.08 267.88 459.309C267.277 454.411 274.675 452.938 275.894 457.775C276.959 470.314 273.847 482.874 273.226 495.401C272.634 507.533 269.697 521.022 275.186 532.197C278.528 539.008 298.65 544.862 310.072 547.407C312.871 539.596 316.362 531.648 322.301 525.706C336.593 512.359 348.806 523.622 351.616 539.761C355.205 526.596 365.497 506.593 380.645 520.511C369.679 498.87 370.881 486.997 370.168 463.915C369.783 455.895 369.3 447.875 368.762 439.866C369.202 435.447 365.162 423.502 371.216 422.842C439.978 411.711 533.083 336.607 552.37 268.842C539.439 269.958 526.156 270.227 513.488 267.011C508.367 265.632 510.541 257.656 515.678 259.046C519.559 260.102 523.543 260.706 527.556 260.992C571.63 263.779 647.275 243.034 682.66 216.396C696.832 205.787 702.304 189.192 704.703 172.3C706.344 159.426 709.286 142.402 702.299 130.854C688.83 117.963 668.505 117.155 651.534 111.472C646.523 110.07 648.526 102.38 653.461 103.457C649.059 10.0046 591.888 -1.33001 511.666 13.6765C483.465 19.9044 454.128 28.8204 432.272 48.4827C421.306 58.8499 415.438 72.7515 412.255 87.5766C407.15 112.604 409.148 138.489 414.472 163.478C418.797 187.647 431.591 210.19 450.593 225.867C452.613 227.39 454.732 228.764 457.026 229.819C459.227 230.369 460.939 232.727 460.204 235.019C452.646 256.056 440.664 299.157 414.719 301.422C412.233 301.471 410.927 299.69 410.767 297.766C400.525 306.594 394.471 319.144 388.028 330.797C373.466 356.808 358.164 383.699 334.903 402.933C267.375 456.033 124.192 439.569 73.806 368.814C55.6604 377.466 33.3215 379.038 14.7203 371.106C18.0958 375.855 22.1356 380.126 26.6143 383.507C39.6555 393.522 56.7416 397.238 72.4557 394.006C74.6677 393.561 76.8687 394.621 77.5273 396.892C79.871 404.956 82.2147 413.02 84.5583 421.089C84.9426 422.403 85.2664 423.425 84.9535 424.876C80.118 442.659 75.749 460.749 68.7839 477.844C62.373 492.268 55.0786 507.412 55.3805 523.496V523.501Z" fill="black"/>
<path d="M545.713 88.8406C552.464 79.386 562.749 72.1301 574.44 70.7668C579.819 70.8383 579.907 78.7043 574.44 79.0287C570.543 79.5399 564.621 81.9915 560.905 84.9213C583.348 88.6317 600.083 128.451 588.173 147.932C591.587 146.25 594.902 144.348 597.998 142.182C600.177 140.654 602.24 144.238 600.078 145.75C593.673 150.329 586.362 153.484 579.045 156.254C550.191 166.523 524.087 108.3 545.707 88.8406H545.713ZM561.004 113.604C564.155 119.557 570.565 122.333 575.324 119.81C580.083 117.287 581.389 110.41 578.238 104.457C575.088 98.5041 568.677 95.7282 563.918 98.2513C559.16 100.774 557.853 107.651 561.004 113.604Z" fill="black"/>
<path d="M551.432 38.6926C562.519 43.9256 550.021 50.7308 540.515 57.8822C530.992 65.0502 524.932 70.1018 522.419 68.9035C512.852 65.1216 534.291 29.5733 551.426 38.6871L551.432 38.6926Z" fill="black"/>
<path d="M589.013 202.989C591.302 201.626 593.404 205.21 591.093 206.556C589.842 207.359 588.711 208.392 587.701 209.464C602.526 224.801 627.417 223.223 645.65 215.302C649.246 213.235 652.506 218.397 648.938 220.579C628.811 230.072 601.829 230.952 584.55 215.252C583.557 217.517 586.016 221.244 583.112 222.321C582.053 222.613 580.851 221.964 580.577 220.881C578.705 213.785 583.074 206.644 589.018 202.989H589.013Z" fill="black"/>
<path d="M684.34 131.667C690.542 132.046 688.643 158.58 682.452 158.063C676.25 157.684 678.149 131.15 684.34 131.667Z" fill="black"/>
<path d="M642.374 150.158C645.403 144.727 668.456 157.942 665.305 163.307C662.276 168.738 639.229 155.523 642.374 150.158Z" fill="black"/>
<path d="M563.918 98.2512C568.677 95.7227 575.088 98.5041 578.238 104.457C581.389 110.41 580.083 117.281 575.324 119.81C570.565 122.333 564.154 119.557 561.004 113.604C557.853 107.651 559.16 100.78 563.918 98.2512Z" fill="white"/>
<path d="M659.136 80.5128C659.284 81.156 659.487 81.8266 659.762 82.5137C660.975 85.5315 662.956 87.5708 664.191 87.0761C665.426 86.5759 665.448 83.7285 664.241 80.7107C663.028 77.6929 661.046 75.6536 659.811 76.1483C659.059 76.4506 658.763 77.6215 658.911 79.1716C658.137 74.6971 657.188 70.2557 656.03 65.8691C660.898 67.3753 666.239 75.6206 668.857 86.378C671.656 97.8885 670.031 104.578 665.679 106.733C664.367 106.381 663.077 106.018 661.842 105.645C661.332 97.2618 660.514 88.8296 659.131 80.5073L659.136 80.5128Z" fill="black"/>
<path d="M653.84 89.2858C650.744 76.5495 647.983 67.0454 653.417 65.7207C654.257 65.5173 655.14 65.5942 656.03 65.8691C657.188 70.2556 658.137 74.6971 658.911 79.1715C658.95 79.5948 659.026 80.0455 659.136 80.5128C660.519 88.8406 661.337 97.2728 661.848 105.65C663.088 106.024 664.372 106.381 665.684 106.738C665.223 106.969 664.74 107.162 664.219 107.288C658.785 108.613 656.941 102.017 653.84 89.2858Z" fill="black"/>
<path d="M659.811 76.1483C661.046 75.6481 663.033 77.6929 664.241 80.7107C665.454 83.7285 665.432 86.5759 664.191 87.0761C662.956 87.5763 660.969 85.5315 659.762 82.5137C659.487 81.8266 659.284 81.156 659.136 80.5128C659.065 80.0676 658.988 79.6168 658.911 79.1716C658.763 77.627 659.059 76.4506 659.811 76.1483Z" fill="white"/>
<path d="M658.917 79.1716C658.993 79.6169 659.065 80.0676 659.142 80.5129C659.032 80.0456 658.955 79.5949 658.917 79.1716Z" fill="white"/>
<path d="M430.253 282.034C426.833 278.192 422.557 275.273 417.689 274.113C393.067 270.551 371.271 297.052 360.08 316.313C349.618 337.344 342.406 360.705 323.591 376.185C261.426 432.638 106.085 414.58 76.386 329.791C60.9025 374.448 129.165 406.561 163.305 417.049C181.445 422.265 200.244 424.871 219.092 425.459C302.975 427.669 341.731 401.883 380.015 328.329C387.666 315.065 404.615 277.367 423.941 289.191C424.242 288.938 416.553 294.809 410.768 297.772C400.526 306.6 394.472 319.149 388.028 330.802C373.467 356.814 358.164 383.704 334.903 402.938C267.376 456.038 124.193 439.575 73.8064 368.819C73.1368 367.807 70.7053 363.284 69.9972 361.492C63.2297 347.024 64.4646 329.307 74.3443 316.549C61.8411 170.618 356.485 145.629 401.947 266.995C412.892 263.273 425.927 265.478 434.781 274.921C435.373 273.888 429.638 282.881 430.247 282.029L430.253 282.034ZM329.705 357.539C321.154 349.415 314.299 339.592 310.248 328.45C306.345 317.72 305.33 306.11 307.032 294.836C302.871 307.083 290 314.669 277.305 313.619C298.552 324.498 313.08 345.276 320.874 367.428C324.046 364.344 327.016 361.052 329.705 357.539ZM174.43 281.166C172.916 300.245 191.308 318.891 210.409 310.343C230.294 301.334 235.723 276.658 233.582 256.715C218 258.458 201.693 255.314 188.833 246.53C181.132 256.463 174.842 268.391 174.43 281.166ZM175.638 260.08C169.831 264.834 163.272 268.589 155.977 270.672C161.603 272.662 166.752 276.18 170.319 281.034C170.528 273.75 172.542 266.698 175.638 260.08ZM222.116 307.661C234.098 304.461 246.93 304.088 259.176 306.918C256.92 305.324 254.818 303.51 252.913 301.515C245.207 293.429 240.481 283.013 237.693 272.2C236.464 285.585 231.859 298.926 222.116 307.661ZM252.963 295.287C263.139 309.733 286.218 315.67 298.799 301.031C315.819 278.39 294.72 249.602 274.171 237.773C264.741 247.349 252.145 253.467 238.95 255.907C240.459 269.765 244.23 284.189 252.963 295.287ZM306.34 268.281C308.426 273.965 309.403 280.237 308.876 286.316C312.52 273.514 319.859 261.74 329.832 252.967C317.515 255.506 304.545 252.736 293.173 247.75C298.842 253.665 303.486 260.492 306.345 268.281H306.34ZM291.059 387.459C267.595 298.294 199.997 317.319 179.985 396.21C216.638 403.07 256.393 402.35 291.059 387.459ZM175.951 395.297C196.775 312.415 269.944 293.044 294.863 385.656C302.997 381.638 310.731 376.641 317.581 370.484C284.017 274.558 176.269 299.597 153.947 388.476C161.126 391.224 168.453 393.522 175.951 395.303V395.297ZM150.077 386.959C157.372 358.221 175.627 331.797 201.182 316.5C191.495 316.912 182.147 311.393 176.648 303.56C173.448 332.397 158.272 359.87 141.981 383.43C144.66 384.661 147.355 385.848 150.077 386.959ZM120.466 371.804C131.652 355.407 155.983 322.145 150.818 302.043C138.491 279.418 95.311 305.671 82.7639 318.396C84.9758 341.23 101.925 359.799 120.466 371.804ZM82.2864 313.053C97.9731 300.333 117.584 288.257 138.452 289.312C149.001 290.054 157.421 299.553 155.752 310.239C151.965 333.974 137.415 354.626 123.935 373.964C128.567 376.773 133.359 379.318 138.227 381.665C152.706 360.612 182.927 310.634 168.7 285.942C150.297 257.639 100.405 279.214 82.484 298.712C82.0394 303.444 81.979 308.221 82.2919 313.048L82.2864 313.053ZM100.992 254.038C92.1989 264.812 85.7992 278.071 83.4006 291.824C96.6667 280.38 112.968 272.711 130.241 269.336C119.423 264.895 112.771 252.521 113.737 240.912C109.154 244.925 104.867 249.284 100.992 254.038ZM118.391 237.015C115.509 249.41 122.486 263.389 135.109 266.857C154.721 272.612 174.112 259.2 185.364 243.952C175.215 235.932 168.898 224.135 166.593 211.586C149.446 217.479 132.673 225.724 118.391 237.009V237.015ZM200.222 202.698C208.543 230.897 253.182 226.669 258.319 198.361C238.906 197.69 219.35 199.103 200.222 202.698ZM262.463 198.52C257.244 231.518 205.14 236.619 196.237 203.484C187.543 205.27 178.942 207.518 170.506 210.267C181.22 273.377 283.683 263.273 285.993 200.702C278.172 199.603 270.307 198.888 262.463 198.514V198.52ZM290.088 201.318C289.188 213.235 285.099 225.053 277.332 234.255C290.231 242.929 305.297 250.103 321.105 249.811C336.385 250.031 352.56 239.334 353.169 223.047C333.915 211.515 312.218 204.863 290.088 201.318ZM357.116 225.515C356.375 231.155 353.954 236.443 350.37 240.846C357.423 238.367 364.822 237.229 372.281 237.35C367.616 232.985 362.511 229.044 357.116 225.515ZM376.612 241.66C315.759 237.108 288.112 314.675 332.148 354.159C334.294 351.025 336.204 347.749 337.955 344.385C327.905 329.917 324.315 311.91 329.145 294.693C335.715 269.979 359.91 250.696 385.849 253.252C383.11 249.124 380.009 245.26 376.617 241.66H376.612ZM388.571 257.661C344.475 251.565 315.517 304.467 340.046 340.18C351.517 312.119 365.771 284.898 394.307 270.084C392.754 265.719 390.822 261.58 388.571 257.661Z" fill="black"/>
</g>
<defs>
<clipPath id="clip0_1_4554">
<rect width="715" height="559" fill="white" transform="matrix(-1 0 0 1 715 0)"/>
</clipPath>
</defs>
</svg>
