<svg width="45" height="122" viewBox="0 0 45 122" fill="none" xmlns="http://www.w3.org/2000/svg">
<g clip-path="url(#clip0_1_8065)" filter="url(#filter0_d_1_8065)">
<path d="M40.6826 103.358L40.6826 9.41081C40.6826 4.51782 36.6965 0.551269 31.7794 0.551269L13.663 0.551268C8.74588 0.551268 4.75979 4.51782 4.75979 9.41081L4.75979 103.358C4.75979 108.251 8.74588 112.217 13.663 112.217L31.7794 112.217C36.6965 112.217 40.6826 108.251 40.6826 103.358Z" fill="#EBEBEB"/>
<path d="M40.6826 103.358L40.6826 63.0349L4.75979 63.0349L4.75979 103.358C4.75979 108.25 8.74623 112.217 13.663 112.217L31.7794 112.217C36.6962 112.217 40.6826 108.25 40.6826 103.358Z" fill="#94A4B2"/>
<path d="M40.6826 104.588L40.6826 93.6294C40.6826 98.522 36.6962 102.489 31.7794 102.489L13.6671 102.489C8.75031 102.489 4.76387 98.522 4.76387 93.6294L4.76387 104.588C4.76387 109.481 8.75031 113.448 13.6671 113.448L31.7794 113.448C36.6962 113.448 40.6826 109.481 40.6826 104.588Z" fill="#83919B"/>
<path opacity="0.46" d="M35.2354 5.31C33.6645 3.77115 31.2123 3.68995 29.0089 3.70213C27.1687 3.71431 25.3285 3.72243 23.4883 3.73461C21.9663 3.74273 20.3832 3.76709 19.0245 4.44922C18.0656 4.9324 17.2087 5.96371 17.5147 6.9869C17.8942 8.24965 19.5835 8.44454 20.9095 8.39582C22.5253 8.33491 24.1371 8.27401 25.7528 8.21311C27.9358 8.1319 30.5023 8.22935 31.7509 10.0118C32.7056 11.372 32.4853 13.191 32.3547 14.8476C32.1466 17.5477 32.2854 20.2722 32.7669 22.9357C33.0157 24.3 33.8481 26.0012 35.2191 25.7535C36.3167 25.5546 36.741 24.2309 36.8961 23.1306C37.4551 19.119 38.5568 8.57853 35.2313 5.31406L35.2354 5.31Z" fill="white"/>
</g>
<defs>
<filter id="filter0_d_1_8065" x="0.759796" y="0.55127" width="43.9228" height="120.9" filterUnits="userSpaceOnUse" color-interpolation-filters="sRGB">
<feFlood flood-opacity="0" result="BackgroundImageFix"/>
<feColorMatrix in="SourceAlpha" type="matrix" values="0 0 0 0 0 0 0 0 0 0 0 0 0 0 0 0 0 0 127 0" result="hardAlpha"/>
<feOffset dy="4"/>
<feGaussianBlur stdDeviation="2"/>
<feComposite in2="hardAlpha" operator="out"/>
<feColorMatrix type="matrix" values="0 0 0 0 0 0 0 0 0 0 0 0 0 0 0 0 0 0 0.25 0"/>
<feBlend mode="normal" in2="BackgroundImageFix" result="effect1_dropShadow_1_8065"/>
<feBlend mode="normal" in="SourceGraphic" in2="effect1_dropShadow_1_8065" result="shape"/>
</filter>
<clipPath id="clip0_1_8065">
<rect width="112.9" height="35.9228" fill="white" transform="translate(40.6826 0.55127) rotate(90)"/>
</clipPath>
</defs>
</svg>
