<svg width="110" height="140" viewBox="0 0 110 140" fill="none" xmlns="http://www.w3.org/2000/svg">
<g clip-path="url(#clip0_1_8029)">
<path d="M30.2287 52.3511C30.1195 49.0934 30.0144 45.7853 31.0021 42.6099C31.9899 39.4345 34.2408 36.3504 37.7273 34.8425C40.4512 33.6647 43.9554 33.3715 45.7218 31.2597C47.0211 29.6994 46.9131 27.6522 46.7429 25.7858C46.3164 20.9705 45.887 16.1584 45.4588 11.3438C45.3107 9.6581 47.3596 8.40126 49.2018 9.04787L60.9112 13.1688C61.7926 13.4795 62.393 14.169 62.4807 14.9727C62.8019 17.8758 63.1252 20.7844 63.4482 23.6867C63.6794 25.7635 64.0183 28.0289 65.8312 29.4217C68.184 31.2338 71.9909 30.8022 74.817 32.0626C78.6297 33.7659 79.5829 37.92 80.0652 41.5584C83.6644 68.6825 83.7124 96.2153 80.1951 123.508C80.0713 124.473 79.2219 125.286 78.0934 125.505C65.9356 127.847 53.3754 128.53 41.0608 127.528C39.9654 127.439 39.0696 126.779 38.8114 125.883C31.9715 102.026 31.0761 77.0584 30.2305 52.3504L30.2287 52.3511Z" fill="#2A282B"/>
<path d="M38.8107 125.881C37.748 122.179 36.8319 118.45 36.0325 114.701C50.9177 116.769 66.3284 116.56 81.2625 114.067C80.9546 117.218 80.5965 120.364 80.1926 123.507C80.075 124.472 79.2193 125.285 78.0946 125.503C65.9337 127.848 53.3724 128.533 41.0589 127.529C39.9647 127.437 39.0663 126.776 38.8107 125.881Z" fill="white"/>
<path d="M30.1944 51.3487C30.1099 48.4173 30.1161 45.4578 31.0021 42.61C31.9899 39.4346 34.2408 36.3505 37.7273 34.8425C40.4512 33.6647 43.9554 33.3715 45.7218 31.2598C47.0192 29.7002 46.9138 27.6541 46.7429 25.7859C46.6825 25.1375 46.6295 24.4863 46.5684 23.8361C52.1713 23.4292 57.7379 22.5985 63.1849 21.3586C63.2715 22.1372 63.3604 22.9107 63.4463 23.6874C63.6776 25.7643 64.0164 28.0296 65.83 29.4243C68.1829 31.2364 71.9897 30.8048 74.8158 32.0652C78.6286 33.7685 79.5818 37.9226 80.0641 41.561C80.2764 43.1543 80.477 44.75 80.6558 46.3496C63.8299 48.0145 47.0141 49.684 30.1933 51.3512L30.1944 51.3487Z" fill="white"/>
<g opacity="0.25">
<path d="M56.8009 11.7232L60.9093 13.1696C61.79 13.4785 62.3904 14.168 62.48 14.971C62.8019 17.8759 63.1244 20.7826 63.4475 23.685C63.6787 25.7618 64.0176 28.0272 65.8304 29.42C68.1833 31.2321 71.9901 30.8005 74.8163 32.0609C78.629 33.7642 79.5822 37.9183 80.0645 41.5567C83.6656 68.6801 83.7136 96.2129 80.1951 123.508C80.0713 124.473 79.2219 125.287 78.0934 125.505C65.9374 127.847 53.3753 128.53 41.0608 127.528C39.9647 127.437 39.067 126.778 38.8114 125.883C38.7048 125.513 38.6001 125.143 38.499 124.772C44.3045 124.798 50.1244 125.596 55.908 125.069C62.6686 124.454 69.8208 121.486 72.7913 115.367C74.7873 111.256 74.5704 106.452 74.3102 101.88C73.5075 87.7307 72.7047 73.5815 71.902 59.4324C71.6443 54.8886 71.3407 50.1795 69.1901 46.1683C66.3215 40.8133 60.8356 37.7789 55.0312 35.5644C53.2801 34.8959 53.159 32.4691 54.8358 31.6406C57.4669 30.3409 59.6699 28.5157 60.3895 25.7417C61.0394 23.2407 60.2484 20.6034 59.3671 18.1682C58.5812 16.0005 57.7185 13.8535 56.8009 11.7232Z" fill="#001568"/>
</g>
<g opacity="0.6">
<path d="M33.28 50.6495C32.8157 50.6517 32.3882 54.2218 32.2749 60.0092C32.2665 60.7325 32.2565 61.4905 32.2478 62.2798C32.2435 63.0695 32.2557 63.8913 32.2633 64.7403C32.2757 66.4415 32.3361 68.2582 32.4058 70.1713C32.5667 73.9935 32.8441 78.1942 33.2719 82.5905C33.7079 86.9858 34.2526 91.1613 34.8381 94.9432C35.1421 96.8331 35.435 98.6273 35.7553 100.299C35.9126 101.135 36.0612 101.943 36.2177 102.717C36.3804 103.49 36.5356 104.232 36.6869 104.941C37.9225 110.6 39.037 114.022 39.4927 113.936C40.4609 113.746 38.3865 99.6723 36.7014 82.2619C34.9689 64.8548 34.2702 50.6512 33.2818 50.6487L33.28 50.6495Z" fill="white"/>
</g>
<g opacity="0.6">
<path d="M47.1465 10.8275C46.676 10.847 46.2667 11.589 46.0731 12.8097C45.9747 13.4186 45.9376 14.1443 45.9702 14.9477C46.0084 15.749 46.1192 16.6246 46.32 17.5255C46.5233 18.4275 46.7978 19.2664 47.1043 20.006C47.4171 20.7454 47.76 21.3862 48.1087 21.8973C48.806 22.9196 49.4928 23.4191 49.9261 23.2353C50.3694 23.0498 50.4846 22.2348 50.4031 21.0804C50.3184 19.923 50.0503 18.4167 49.6826 16.7762C49.3167 15.1351 48.9167 13.6599 48.4984 12.5761C48.0796 11.4968 47.6276 10.8082 47.1483 10.8268L47.1465 10.8275Z" fill="white"/>
</g>
<path d="M38.261 33.2039C38.9583 33.0025 39.6599 32.8123 40.3548 32.5991C41.5934 32.2197 42.8332 31.8376 43.9523 31.1552C45.2058 30.3919 45.8763 29.2745 46.0089 27.8157C46.0866 26.9576 46.035 26.1041 45.9576 25.2498C45.644 21.8383 45.336 18.4246 45.0169 15.0152C44.9376 14.1616 44.8305 13.3122 44.7314 12.4619C44.6657 11.8942 44.6687 11.3237 44.6655 10.7534C44.6561 9.14886 45.8974 7.79753 47.62 7.58458C48.2239 7.51011 48.8239 7.5476 49.4085 7.69501C49.9299 7.82611 50.4468 7.9844 50.952 8.16201C53.9382 9.215 56.9235 10.2768 59.9089 11.3387C60.4465 11.5294 60.9831 11.7227 61.5093 11.939C62.6589 12.4156 63.3185 13.2886 63.5164 14.5157C63.5655 14.8284 63.6109 15.1425 63.6427 15.4597C63.8865 17.859 64.1278 20.257 64.3672 22.6558C64.4682 23.6668 64.6034 24.6734 64.9088 25.6492C65.1394 26.3837 65.4666 27.0666 65.9646 27.6591C66.5101 28.31 67.2091 28.7304 67.9962 29.0154C68.8939 29.3413 69.8221 29.5302 70.7643 29.667C71.7984 29.8177 72.826 29.9901 73.8389 30.2573C76.6434 30.9991 78.5374 32.7668 79.6792 35.4088C80.4799 37.265 80.8736 39.2185 81.1492 41.2062C82.3326 49.7319 82.9692 58.304 83.4104 66.8908C84.1707 81.7125 83.8416 96.5108 82.4918 111.283C82.2375 114.062 81.919 116.835 81.6314 119.61C81.5592 120.305 81.4976 120.999 81.4317 121.694C81.3718 122.326 81.2849 122.954 81.1001 123.564C80.8387 124.428 80.2974 125.056 79.5156 125.492C78.8719 125.851 78.1716 126.056 77.4539 126.176C66.5766 128.01 55.6334 128.847 44.5943 128.208C43.8677 128.165 43.1402 128.159 42.415 128.121C41.7827 128.087 41.1507 128.032 40.5361 127.872C39.3568 127.562 38.5057 126.881 38.0656 125.712C37.794 124.997 37.5831 124.27 37.4097 123.525C36.9455 121.547 36.4522 119.576 35.9762 117.601C35.2619 114.637 34.6754 111.648 34.1324 108.651C32.112 97.4839 31.066 86.2102 30.4051 74.8984C29.9211 66.5997 29.6245 58.2935 29.3743 49.9867C29.3205 48.2099 29.3626 46.4349 29.6117 44.6705C29.8999 42.6362 30.549 40.7282 31.5474 38.9381C33.0507 36.2402 35.3653 34.2748 38.2598 33.2064L38.261 33.2039ZM31.5012 51.6828C31.3108 51.7659 31.2496 51.872 31.246 52.0072C31.2423 52.1977 31.2467 52.3872 31.2536 52.5779C31.5461 60.8176 31.833 69.0595 32.3591 77.2912C33.0999 88.9189 34.2897 100.493 36.5878 111.934C36.9515 113.742 36.4854 113.367 38.3788 113.603C50.7093 115.136 63.0377 115.089 75.3563 113.56C76.8927 113.369 78.4215 113.129 79.9519 112.9C80.5384 112.813 80.5402 112.796 80.6004 112.186C80.6494 111.681 80.6922 111.176 80.7368 110.671C82.1433 95.0744 82.3714 79.4542 81.4421 63.8152C81.1194 58.3995 80.6596 52.9957 80.0501 47.6042C79.9634 46.8256 79.987 46.8931 79.2524 46.9408C79.1263 46.9484 79.0007 46.9685 78.8749 46.9823C69.5376 47.9058 60.199 48.8257 50.8624 49.7511C44.637 50.367 38.4125 50.991 32.1892 51.6125C31.9387 51.6377 31.6877 51.6672 31.5015 51.6891L31.5012 51.6828ZM41.1312 34.2244C40.6453 34.3645 40.1594 34.5046 39.6742 34.6466C37.4919 35.2913 35.6672 36.482 34.215 38.2407C32.7246 40.0436 31.8736 42.1324 31.4858 44.4276C31.2583 45.776 31.1639 47.1353 31.1694 48.5013C31.1754 50.1136 30.9655 49.8896 32.5105 49.7378C45.6827 48.4399 58.8558 47.1333 72.0284 45.831C74.2596 45.6096 76.4952 45.4056 78.7237 45.1661C79.8756 45.0426 79.7674 45.2473 79.6465 43.9783C79.5584 43.0622 79.4404 42.1511 79.3236 41.2374C79.1399 39.7861 78.8394 38.3559 78.3618 36.9718C77.4563 34.3504 75.6875 32.6285 72.9893 31.9271C72.3773 31.7688 71.7515 31.6689 71.13 31.5525C70.3532 31.4059 69.5706 31.2828 68.7966 31.1266C67.9563 30.9574 67.145 30.6922 66.3754 30.3029C65.2366 29.7267 64.3581 28.8731 63.7805 27.7373C63.391 26.974 63.1002 26.1646 62.9343 25.3164C62.7559 24.4133 62.6354 23.501 62.5472 22.5849C62.4959 22.0606 62.4097 22.0063 61.8678 22.1103C61.2161 22.2369 60.5719 22.3947 59.9188 22.5176C56.1296 23.2293 52.3182 23.788 48.4736 24.1256C47.5938 24.203 47.6603 24.1055 47.7369 25.0302C47.8231 26.0745 47.8879 27.1184 47.782 28.1635C47.5559 30.4057 46.3937 31.9819 44.4085 32.9893C43.3592 33.522 42.241 33.8621 41.1287 34.2233L41.1312 34.2244ZM78.2272 124.099C78.8932 123.855 79.2816 123.469 79.4215 122.863C79.4779 122.617 79.5134 122.365 79.5401 122.113C79.7585 120.129 79.9743 118.143 80.1813 116.157C80.227 115.721 80.3649 115.288 80.2426 114.844C79.7728 114.632 79.3158 114.848 78.8648 114.913C73.3597 115.716 67.8289 116.23 62.2681 116.436C54.2321 116.733 46.2225 116.393 38.2365 115.42C38.0169 115.393 37.7966 115.364 37.5767 115.359C37.4295 115.355 37.3547 115.465 37.3652 115.609C37.375 115.735 37.401 115.859 37.4307 115.982C37.8839 117.864 38.3253 119.748 38.7977 121.625C39.0692 122.701 39.4026 123.761 39.6885 124.836C39.8831 125.565 40.3506 125.972 41.0714 126.099C41.4139 126.16 41.7597 126.196 42.1057 126.222C45.0054 126.441 47.9103 126.563 50.8181 126.592C59.5948 126.68 68.2967 125.915 76.9295 124.357C77.3947 124.273 77.8584 124.169 78.2276 124.095L78.2272 124.099ZM61.6898 14.4664C61.5158 14.1587 61.347 13.8872 61.0533 13.7375C60.8012 13.6082 60.5389 13.4912 60.2726 13.397C56.9025 12.2074 53.5294 11.021 50.1559 9.8391C49.7391 9.69375 49.3097 9.57655 48.8804 9.4763C48.5112 9.38935 48.1333 9.36304 47.7514 9.40411C46.964 9.49097 46.5462 9.8771 46.4853 10.6735C46.4516 11.1133 46.4795 11.5595 46.5185 12.0014C46.5881 12.7907 46.7 13.5746 46.7714 14.3632C46.9952 16.7933 47.2066 19.224 47.4298 21.6523C47.4865 22.2744 47.3393 22.4154 48.2137 22.3294C48.3071 22.3194 48.401 22.305 48.4952 22.2968C52.0197 21.9959 55.5166 21.4888 58.9949 20.8549C59.9582 20.6799 60.9135 20.4676 61.8685 20.2597C62.2256 20.1813 62.2647 20.1006 62.247 19.7313C62.2456 19.7 62.2461 19.6679 62.2429 19.6373C62.0635 18.2864 61.9451 16.9293 61.8742 15.569C61.8537 15.1923 61.7508 14.8214 61.6901 14.4727L61.6898 14.4664Z" fill="#001568"/>
</g>
<defs>
<clipPath id="clip0_1_8029">
<rect width="121.711" height="70.9981" fill="white" transform="translate(43.2459 139.34) rotate(-110.813)"/>
</clipPath>
</defs>
</svg>
