<svg width="118" height="84" viewBox="0 0 118 84" fill="none" xmlns="http://www.w3.org/2000/svg">
<path d="M109.723 28.5738C107.577 25.137 107.044 23.1603 110.433 17.5154C112.26 14.4525 112.225 11.2115 110.309 9.27053C107.594 6.49257 100.658 5.86931 89.3217 12.4225C76.1584 20.0084 70.3041 14.9511 64.6272 10.0541C60.6888 6.63503 56.9633 3.39408 50.3817 3.76803C40.2519 4.28445 39.223 10.0184 37.6796 18.6729C36.899 23.0179 36.0297 27.9327 33.688 32.6161C30.2109 39.5966 23.2744 43.7101 17.1363 47.3607C10.7852 51.1358 5.30346 54.3946 4.11485 59.8081C3.49394 62.586 3.84875 64.9722 5.14379 66.8954C7.82259 70.8665 13.6946 71.8993 13.7656 71.8993C14.0494 71.9527 14.3333 72.0596 14.5639 72.2377C19.5667 76.1019 27.6031 78.5593 35.1782 73.9116C38.265 72.024 41.6712 71.0624 45.6095 71.0624C51.996 71.0624 59.7486 73.591 69.7364 78.7552C72.0959 79.9839 73.9054 80.3044 75.094 79.7168C77.6131 78.4525 78.6066 72.8787 79.6355 66.9667C80.6467 61.2505 81.7821 54.7686 84.6738 49.64C89.0024 41.9828 97.7129 41.8404 104.703 41.7157C108.322 41.6623 112.065 41.591 113.112 40.2733C113.52 39.7569 113.591 38.8309 113.324 37.531C112.313 32.7764 110.805 30.3724 109.723 28.6094V28.5738Z" fill="#FFE181"/>
</svg>
